<?xml version="1.0" encoding="utf-8"?>
<!-- Generator: Adobe Illustrator 19.2.1, SVG Export Plug-In . SVG Version: 6.00 Build 0)  -->
<svg version="1.1" id="Capa_1" xmlns="http://www.w3.org/2000/svg" xmlns:xlink="http://www.w3.org/1999/xlink" x="0px" y="0px"
	 viewBox="0 0 310 310" style="enable-background:new 0 0 310 310;" xml:space="preserve">
<style type="text/css">
	.st0{display:none;}
	.st1{fill:#FFFFFF;}
</style>
<circle cx="155.4" cy="155.4" r="149.2"/>
<path class="st0" d="M304.7,145.6c0,6.2,0,12.4,0,18.6c-0.3,1.1-0.8,2.1-0.9,3.2c-5.9,65.5-50.7,117.6-114.7,132.9
	c-8.2,2-16.6,3-24.9,4.4c-6.2,0-12.4,0-18.6,0c-1.2-0.3-2.4-0.9-3.7-1c-62.5-7.6-105.1-41-127.5-99.7c-4-10.5-5.5-21.9-8.2-32.8
	c0-10.5,0-20.9,0-31.4c0.4-1.3,0.9-2.5,1.1-3.8C16.9,76.1,50,35.4,106.8,14.3c10.5-3.9,22-5.5,33-8.1c10.5,0,20.9,0,31.4,0
	c1,0.4,2.1,0.9,3.1,1.1c63.5,8.2,114.8,56,127.1,118.6C302.6,132.4,303.6,139,304.7,145.6z M156,168.9c18.2,18.4,36.5,37,54.2,54.8
	c4.8-4.6,9.2-8.8,14.6-13.8c-18.4-18.4-36.8-36.7-55.8-55.7c18.3-18.2,36.8-36.5,55.2-54.9c-4.5-4.6-8.6-8.8-13.4-13.7
	c-18.5,18.8-36.7,37.3-55.9,56.9c-19.1-19.2-37.5-37.7-55.6-55.9c-4.5,4.3-8.7,8.2-13.4,12.7c18.7,18.5,37.2,36.8,56,55.4
	c-19.1,19-37.6,37.3-55.6,55.3c4.7,5.1,8.8,9.5,13.7,14.8C118.7,206.2,137.1,187.8,156,168.9z"/>
<path class="st1" d="M156.1,168.6c18.2,18.4,36.5,37,54.2,54.8c4.8-4.6,9.2-8.8,14.6-13.8c-18.4-18.4-36.8-36.7-55.8-55.7
	c18.3-18.2,36.8-36.5,55.2-54.9c-4.5-4.6-8.6-8.8-13.4-13.7c-18.5,18.8-36.7,37.3-55.9,56.9c-19.1-19.2-37.5-37.7-55.6-55.9
	c-4.5,4.3-8.7,8.2-13.4,12.7c18.7,18.5,37.2,36.8,56,55.4c-19.1,19-37.6,37.3-55.6,55.3c4.7,5.1,8.8,9.5,13.7,14.8
	C118.8,205.9,137.2,187.5,156.1,168.6z"/>
</svg>
