<?xml version="1.0" encoding="utf-8"?>
<!-- Generator: Adobe Illustrator 19.2.1, SVG Export Plug-In . SVG Version: 6.00 Build 0)  -->
<svg version="1.1" id="Capa_1" xmlns="http://www.w3.org/2000/svg" xmlns:xlink="http://www.w3.org/1999/xlink" x="0px" y="0px"
	 viewBox="0 0 310 310" style="enable-background:new 0 0 310 310;" xml:space="preserve">
<style type="text/css">
	.st0{fill:#E4777D;}
</style>
<g>
	<path class="st0" d="M210,80c12.6-16,28.6-22.3,47.9-17.8c21.2,4.9,33.2,19.7,38.8,40.1c4.8,17.2,1.2,33.6-5.7,49.3
		c-13.2,30-35.7,51.7-62.3,70.1c-13,9-23.6,9.5-36.9,0.4c-26.7-18.3-49.5-39.5-62.4-69.8c-7.6-17.9-10.7-36.3-4.3-55.3
		c7.2-21.3,26-35.9,48.5-36.2c11.9-0.1,22.6,4.3,30.9,13.2C206.3,75.9,208,77.8,210,80z M210.9,95.7c-4.7-5.8-8.9-11.5-13.7-16.6
		c-6.5-6.9-15-10-24.2-9.7c-18.7,0.8-33.6,12.5-39.7,30.3c-4.8,14-3.6,27.8,1.2,41.5c12.9,36.7,39.7,60.8,72.6,79.2
		c1.9,1,5.5,0.4,7.6-0.7c5.9-3.2,11.6-6.9,17-10.8c23.4-16.8,42.2-37.4,53.1-64.5c7.1-17.7,8.3-35.5-1.4-52.8
		c-7.8-13.7-19.4-21.8-35.5-22.1c-15.7-0.3-26.7,7.7-34,21.2C212.9,92.4,211.9,94,210.9,95.7z"/>
	<path class="st0" d="M107,147.1c3.5-3.7,6.8-7.3,10.5-11.3c3,6.1,3.2,10-1.3,14.2c-3.6,3.4-5.8,8.4-8.9,13.1c-2-2.8-4.1-5.3-5.8-8
		C81,123.8,43,136.9,31.8,162.7c-6.3,14.5-6,29-1.3,43.8c8.8,27.5,26.4,48.4,48.9,65.6c7,5.3,14.6,9.7,21.9,14.6
		c3.7,2.5,7.1,2.5,11,0.1c27.2-16.1,49.9-36.6,64.7-65.1c0.3-0.6,0.8-1.1,1.3-1.7c1.5,1,3,1.9,4.4,2.8c0.7,0.5,1.4,1,2.7,2
		c-3.5,5.7-6.8,11.5-10.6,16.9c-15.4,22.5-35.9,39.3-59.2,52.9c-4.9,2.9-10.2,3.9-15.3,1.1c-37.2-20.8-67.1-48.3-79.1-91
		c-6.1-21.6-3.6-42.3,11.9-59.6c16.2-18.2,41.7-23.4,62.4-9C99.6,139.3,103,143.3,107,147.1z"/>
	<path class="st0" d="M107.5,32.1c14.2-17.4,31.9-23.3,52.8-16.2c21.2,7.2,31.3,24,35.4,45.8c-5.6-1.3-9.4-2.7-11.3-8.8
		c-6.3-20.5-22.6-32-42.9-30.9c-13.1,0.7-22.5,7.7-29.1,18.8c-1.4,2.3-2.7,4.7-4.3,7.5c-2.8-3.9-5.3-7.3-7.8-10.8
		c-15-21-41.1-20.1-57.6-4.1C26.6,49.1,24.9,68.3,30.5,88.9c3.8,14,10.6,26.5,19.5,38.5c-2.7,1.2-5.1,2.4-7.9,3.7
		C31.5,117,24.2,101.7,20.6,84.6c-2.9-13.3-1.9-26.4,3.3-39c8.3-19.9,26.3-33.1,48.6-32.5c10.2,0.3,19.5,3.9,27.2,11
		C102.3,26.5,104.7,29.2,107.5,32.1z"/>
</g>
</svg>
